<svg width="156" height="145" viewBox="0 0 156 145" fill="none" xmlns="http://www.w3.org/2000/svg">
<path d="M49.3334 1.16663H17.1667C8.28413 1.16663 1.08337 7.95697 1.08337 16.3333V61.8333C1.08337 70.2096 8.28413 77 17.1667 77H49.3334C58.216 77 65.4167 70.2096 65.4167 61.8333V16.3333C65.4167 7.95697 58.216 1.16663 49.3334 1.16663Z" stroke="black" stroke-width="1.5"/>
<path d="M49.3334 98.6666H17.1667C8.28413 98.6666 1.08337 105.457 1.08337 113.833V129C1.08337 137.376 8.28413 144.167 17.1667 144.167H49.3334C58.216 144.167 65.4167 137.376 65.4167 129V113.833C65.4167 105.457 58.216 98.6666 49.3334 98.6666Z" stroke="black" stroke-width="1.5"/>
<path d="M138.23 68.3333H106.064C97.1811 68.3333 89.9803 75.1236 89.9803 83.4999V129C89.9803 137.376 97.1811 144.167 106.064 144.167H138.23C147.113 144.167 154.314 137.376 154.314 129V83.4999C154.314 75.1236 147.113 68.3333 138.23 68.3333Z" stroke="black" stroke-width="1.5"/>
<path d="M138.23 1.16663H106.064C97.1811 1.16663 89.9803 7.95697 89.9803 16.3333V31.5C89.9803 39.8763 97.1811 46.6666 106.064 46.6666H138.23C147.113 46.6666 154.314 39.8763 154.314 31.5V16.3333C154.314 7.95697 147.113 1.16663 138.23 1.16663Z" stroke="black" stroke-width="1.5"/>
</svg>
