<svg width="124" height="118" viewBox="0 0 124 118" fill="none" xmlns="http://www.w3.org/2000/svg">
<path d="M87.8333 59C87.8333 60.357 86.676 61.4583 85.25 61.4583H64.5833V81.125C64.5833 82.482 63.426 83.5833 62 83.5833C60.574 83.5833 59.4167 82.482 59.4167 81.125V61.4583H38.75C37.324 61.4583 36.1667 60.357 36.1667 59C36.1667 57.643 37.324 56.5417 38.75 56.5417H59.4167V36.875C59.4167 35.518 60.574 34.4167 62 34.4167C63.426 34.4167 64.5833 35.518 64.5833 36.875V56.5417H85.25C86.676 56.5417 87.8333 57.643 87.8333 59ZM124 22.125V95.875C124 108.073 113.568 118 100.75 118H23.25C10.4315 118 0 108.073 0 95.875V22.125C0 9.92675 10.4315 0 23.25 0H100.75C113.568 0 124 9.92675 124 22.125ZM118.833 22.125C118.833 12.6358 110.722 4.91667 100.75 4.91667H23.25C13.2783 4.91667 5.16667 12.6358 5.16667 22.125V95.875C5.16667 105.364 13.2783 113.083 23.25 113.083H100.75C110.722 113.083 118.833 105.364 118.833 95.875V22.125Z" fill="#212520"/>
</svg>
